<svg xmlns="http://www.w3.org/2000/svg" id="Group_4904" width="24" height="24" data-name="Group 4904" viewBox="0 0 24 24">
    <defs>
        <style>
            .cls-1{fill:none}.cls-2{fill:#1cd3c6}
        </style>
    </defs>
    <path id="Path_541" d="M0 0h24v24H0z" class="cls-1" data-name="Path 541"/>
    <g id="Android_greenrobot" transform="translate(4 2.4)">
        <path id="Path_562" d="M247.991 115.8a1.2 1.2 0 1 0-2.391 0v4.982a1.2 1.2 0 1 0 2.391 0z" class="cls-2" data-name="Path 562" transform="translate(-231.651 -108.323)"/>
        <path id="Path_563" d="M9.991 115.8a1.2 1.2 0 0 0-2.391 0v4.982a1.2 1.2 0 0 0 2.391 0z" class="cls-2" data-name="Path 563" transform="translate(-7.6 -108.323)"/>
        <g id="Group_1030" data-name="Group 1030" transform="translate(2.837)">
            <path id="Path_564" d="M63.948 9.276l.844-1.524a.164.164 0 0 0-.064-.229.191.191 0 0 0-.082-.023.161.161 0 0 0-.147.088l-.856 1.541a5.724 5.724 0 0 0-4.618 0l-.85-1.541a.168.168 0 0 0-.293.164l.844 1.524A4.859 4.859 0 0 0 56 13.56h10.667a4.864 4.864 0 0 0-2.719-4.284zm-5.076 2.333a.445.445 0 1 1 .445-.445.445.445 0 0 1-.445.445zm4.923 0a.445.445 0 1 1 .445-.445.445.445 0 0 1-.44.445z" class="cls-2" data-name="Path 564" transform="translate(-56 -7.5)"/>
            <path id="Path_565" d="M56 118.1v7.731a1.286 1.286 0 0 0 1.289 1.289h.856v2.637a1.2 1.2 0 1 0 2.391 0v-2.637h1.594v2.637a1.2 1.2 0 1 0 2.391 0v-2.637h.856a1.286 1.286 0 0 0 1.289-1.289V118.1z" class="cls-2" data-name="Path 565" transform="translate(-56 -111.618)"/>
        </g>
    </g>
</svg>
