<svg xmlns="http://www.w3.org/2000/svg" width="243.221" height="120.029" viewBox="0 0 243.221 120.029">
    <defs>
        <style>
            .prefix__cls-2{fill:#eaef20}.prefix__cls-3{fill:#fff}
        </style>
    </defs>
    <g id="prefix__Group_8270" data-name="Group 8270" transform="translate(7035 -14876)">
        <path id="prefix__Path_6379" d="M346.557 170.638l-11.274-27.109a9.257 9.257 0 0 0-9.645-5.459l-9.645 1.192a9.259 9.259 0 0 0-5.865 3.138 17.839 17.839 0 0 0-9.645-1.192l-13.49 1.694a8.559 8.559 0 0 0-1.825.376 8.883 8.883 0 0 0-1.824.063l-7.951 1a7.783 7.783 0 0 0-2.085.5 11.612 11.612 0 0 0-2.085 0l-7.95 1a9.645 9.645 0 0 0-3.78 1.318 21.975 21.975 0 0 0-6.126-.125l-6.191.753a17.381 17.381 0 0 0-8.993 3.514 9.314 9.314 0 0 0-6.517-1.569l-9.645 1.192a9.437 9.437 0 0 0-4.5 1.82 9.046 9.046 0 0 0-4.822-.627l-7.82 1a8.464 8.464 0 0 0-2.8.816 9.122 9.122 0 0 0-2.933-.063l-7.82 1c-.391.063-.782.125-1.108.188a52.8 52.8 0 0 0-4.366-9.225 9.554 9.554 0 0 0-.717-1 11.3 11.3 0 0 0-12.838-3.2 10.438 10.438 0 0 0-6.517 11.107v.188l.065.439a14.576 14.576 0 0 1-.065 5.4 45.553 45.553 0 0 0-19.746-.376 46.268 46.268 0 0 0-17.986 8.032 15.787 15.787 0 0 1-2.216-5.02l-.131-.565a10.817 10.817 0 0 0-10.492-7.718h-.065a10.892 10.892 0 0 0-10.557 7.781 3.435 3.435 0 0 0-.2 1.129c-1.434 10.605 1.173 23.846 6.061 30.874a.062.062 0 0 0 .065.063 3.578 3.578 0 0 1 .521 2.2v.125a41.554 41.554 0 0 0 .782 14.433 42.635 42.635 0 0 0 19.094 26.293 46.12 46.12 0 0 0 24.5 7.217 44.959 44.959 0 0 0 36.56-18.951c.2-.314.456-.627.652-1 2.281 3.514 6.321 6.087 12.186 6.087a21.576 21.576 0 0 0 2.737-.188l5.865-.753a17.7 17.7 0 0 0 7.168-2.385 17.179 17.179 0 0 0 4.822.69 21.562 21.562 0 0 0 2.737-.188l6.126-.753a20.437 20.437 0 0 0 5.474-1.443 9.356 9.356 0 0 0 2.607.376 7.381 7.381 0 0 0 1.173-.063l6.647-.816a9.3 9.3 0 0 0 2.933-.879 9.614 9.614 0 0 0 3 .125l6.191-.753a9.328 9.328 0 0 0 4.953-2.2 9.072 9.072 0 0 0 4.3 1.067 7.335 7.335 0 0 0 1.173-.063l17.074-2.134a9.3 9.3 0 0 0 3.454-1.129 18.456 18.456 0 0 0 2.672.188 21.577 21.577 0 0 0 2.737-.188l5.54-.69c10.492-1.318 14.206-8.785 13.294-15.562l-2.15-15.751v-.126l7.1-.878a10.177 10.177 0 0 0 4.3-1.632 9.371 9.371 0 0 0 4.562.565l8.016-1a9.319 9.319 0 0 0 6.712-4.267 9.146 9.146 0 0 0 .532-7.903z" data-name="Path 6379" transform="translate(-7139 14738)" style="fill:#4921d7"/>
        <path id="prefix__Path_6380" d="M339.882 196.519l7.82-1 3.78 28.05-7.82 1-1.5-11.107-5.735.69 1.5 11.107-7.82 1-3.78-28.05 7.82-1 1.564 11.484 5.735-.69z" class="prefix__cls-2" data-name="Path 6380" transform="translate(-7272.762 14703.396)"/>
        <path id="prefix__Path_6381" d="M410.673 217.894l-1.5-4.079-6.908.878-.391 4.33-7.82 1 3.715-28.991 9.645-1.192 11.274 27.109zm-7.951-8.785l4.562-.565-3.584-9.789z" class="prefix__cls-2" data-name="Path 6381" transform="translate(-7313.51 14706.809)"/>
        <path id="prefix__Path_6382" d="M465.358 204.612l-.521-3.953c-.065-.628-.521-.941-1.238-.816l-4.366.565c-2.216.251-3.91 0-4.953-.816a5.809 5.809 0 0 1-1.955-3.891l-.782-5.773c-.456-3.639 1.5-5.71 5.865-6.275l6.191-.753c4.431-.565 6.843 1 7.364 4.581l.456 3.388-7.95 1-.326-2.385c-.065-.628-.521-.941-1.238-.816l-1.3.188c-.782.125-1.108.439-.978 1.13l.587 4.142c.065.627.521.941 1.238.816l4.236-.565c2.216-.251 3.91 0 4.953.753a5.254 5.254 0 0 1 1.955 3.765l.782 5.773c.456 3.639-1.5 5.71-5.865 6.275l-6.19.753c-4.432.564-6.908-.941-7.429-4.581l-.456-3.388 7.95-1 .326 2.385c.065.628.521.941 1.238.816l1.3-.188c.848-.126 1.171-.502 1.106-1.13z" class="prefix__cls-2" data-name="Path 6382" transform="translate(-7348.059 14711.054)"/>
        <path id="prefix__Path_6383" d="M518.892 174.465l7.95-1 3.063 22.654c.456 3.639-1.5 5.71-5.93 6.275l-6.712.815c-4.431.565-6.907-.941-7.429-4.581l-3.063-22.654 7.95-1 2.932 21.649c.065.627.521.941 1.238.816l1.89-.251c.782-.125 1.108-.439.978-1.13z" class="prefix__cls-2" data-name="Path 6383" transform="translate(-7381.326 14716.665)"/>
        <path id="prefix__Path_6384" d="M576.682 186.694l1.369 9.978-7.951 1-3.78-28.05 13.49-1.694c4.431-.565 6.908.941 7.429 4.581l.978 7.279a4.7 4.7 0 0 1-3.193 5.585l6.647 9.538-8.537 1.067-6-9.35zm1.434-13.052l-3.128.376.978 7.4 3.128-.377c.782-.125 1.108-.439.978-1.129l-.717-5.522c-.067-.56-.455-.812-1.24-.749z" class="prefix__cls-2" data-name="Path 6384" transform="translate(-7417.152 14720.063)"/>
        <path id="prefix__Path_6385" d="M646.313 188.278l-1.5-4.079-6.973.879-.391 4.33-7.82 1 3.715-28.992 9.645-1.192 11.274 27.109zm-7.95-8.785l4.562-.565-3.584-9.79z" class="prefix__cls-2" data-name="Path 6385" transform="translate(-7455.243 14724.628)"/>
        <path id="prefix__Path_6386" d="M356.77 287.134l-7.233.878-.587-4.141q-.1-.847-1.173-.753l-1.434.188c-.717.063-.978.439-.913 1l1.955 14.684q.1.847 1.173.753l1.434-.188c.717-.063.978-.439.912-1l-.521-3.953 7.234-.879.586 4.456c.456 3.326-1.368 5.208-5.409 5.71l-5.865.753c-4.04.5-6.321-.878-6.777-4.2L338 284.687c-.456-3.326 1.369-5.208 5.409-5.71l5.865-.753c4.04-.5 6.321.878 6.777 4.2z" class="prefix__cls-2" data-name="Path 6386" transform="translate(-7279.745 14653.695)"/>
        <path id="prefix__Path_6387" d="M395.434 272.675l6.125-.753c4.041-.5 6.321.879 6.778 4.2l2.15 15.75c.456 3.326-1.368 5.208-5.409 5.711l-6.125.753c-4.041.5-6.321-.878-6.777-4.2l-2.151-15.751c-.456-3.263 1.369-5.208 5.409-5.71zm7.69 19.139l-1.89-13.868q-.1-.847-1.173-.753l-1.76.188c-.717.063-.978.439-.912 1l1.89 13.868q.1.847 1.173.753l1.76-.188c.651-.059.977-.372.912-1z" class="prefix__cls-2" data-name="Path 6387" transform="translate(-7311.046 14657.487)"/>
        <path id="prefix__Path_6388" d="M454.6 264.068l6.647-.816 3.454 25.6-6.191.753-7.755-12.739 1.825 13.434-6.647.816-3.454-25.6 6.19-.753 7.755 12.927z" class="prefix__cls-2" data-name="Path 6388" transform="translate(-7342.645 14662.643)"/>
        <path id="prefix__Path_6389" d="M524.338 262.884l.391 2.887-7.234.878-.521-3.828c-.456-3.326 1.368-5.208 5.409-5.71l5.018-.628c4.105-.5 6.386.879 6.842 4.2l.521 3.7a7.753 7.753 0 0 1-.2 3.514 11.314 11.314 0 0 1-1.825 3.326l-4.366 6.212 8.015-1 .652 5.02-17.073 2.134-.586-4.581 6.712-9.162a8.223 8.223 0 0 0 1.369-2.322 5.064 5.064 0 0 0 .13-2.259l-.391-2.7q-.1-.847-1.173-.753l-.847.125c-.647.006-.973.383-.843.947z" class="prefix__cls-2" data-name="Path 6389" transform="translate(-7387.423 14666.775)"/>
        <path id="prefix__Path_6390" d="M584.858 254.324l2.151 15.751c.456 3.326-1.368 5.208-5.409 5.71l-5.539.69c-4.041.5-6.321-.878-6.777-4.2l-2.084-15.692c-.456-3.326 1.368-5.208 5.409-5.71l5.539-.69c4.039-.502 6.32.879 6.71 4.141zm-5.213 15.751l-1.89-13.868q-.1-.847-1.173-.753l-1.108.125c-.717.063-.977.439-.913 1l1.89 13.868q.1.847 1.173.753l1.108-.126c.653-.057.978-.434.913-.999z" class="prefix__cls-2" data-name="Path 6390" transform="translate(-7417.641 14670.565)"/>
        <path id="prefix__Path_6391" d="M203.178 211.223a33.819 33.819 0 0 0-4.041-10.229 11.931 11.931 0 0 1-1.5-8.409c1.173-5.773-1.108-16.692-5.93-24.536a1.764 1.764 0 0 0-3.128 1.318l.065.565c1.173 8.032-.978 13.052-4.953 16a3.206 3.206 0 0 1-2.607.376 35.769 35.769 0 0 0-19.485-1.443 34.753 34.753 0 0 0-17.335 8.722 2.708 2.708 0 0 1-2.281.69c-4.888-.753-9.124-4.895-11.4-12.864l-.131-.565a1.775 1.775 0 0 0-3.389 0c-1.238 9.1 1.173 19.955 4.562 24.85a11.862 11.862 0 0 1 2.02 8.346 34.332 34.332 0 0 0 .586 11.484c4.04 17.508 22.744 29.368 40.991 25.979 19.419-3.637 31.931-21.772 27.956-40.284zm-38.384 23.971l-19.029-10.731 11.6-17.759 6.126 3.7-7.69 11.672 12.643 7.091zm14.532-2.761l-5.8-4.142L182 217.185l-11.991-7.969 4.106-5.71 18.182 12.111z" class="prefix__cls-2" data-name="Path 6391" transform="translate(-7152.677 14720.319)"/>
        <path id="prefix__Path_6392" d="M503.184 268.636l-4.757.628-.326-2.385 2.672-6.275 1.3-.188z" class="prefix__cls-2" data-name="Path 6392" transform="translate(-7376.109 14664.349)"/>
        <path id="prefix__Path_6393" d="M346.756 407.385l4.373-.512.324 2.772c.065.4.261.529.717.464l.261-.065c.392-.065.588-.262.523-.658l-1.492-12.408 4.374-.512 1.622 13.069c.26 2.112-.851 3.3-3.266 3.551l-2.937.385c-2.415.321-3.785-.607-4.044-2.653z" class="prefix__cls-3" data-name="Path 6393" transform="translate(-7285.052 14582.495)"/>
        <path id="prefix__Path_6394" d="M381.059 392.954l4.373-.512 1.622 13.068c.259 2.112-.851 3.3-3.266 3.551l-3.655.449c-2.415.321-3.785-.607-4.044-2.653l-1.622-13.068 4.373-.512 1.492 12.474c.065.4.26.529.717.464l1.044-.128c.392-.065.588-.262.523-.658z" class="prefix__cls-3" data-name="Path 6394" transform="translate(-7301.725 14584.916)"/>
        <path id="prefix__Path_6395" d="M414.221 388.767l3.982-.513 1.946 16.17-3.72.449-4.628-8.065 1.038 8.514-3.982.514-1.946-16.17 3.721-.449 4.628 8.2z" class="prefix__cls-3" data-name="Path 6395" transform="translate(-7321.244 14587.435)"/>
        <path id="prefix__Path_6396" d="M446.365 398.523l5.483-.64.389 3.168-9.791 1.219-1.946-16.17 9.465-1.22.389 3.168-5.222.641.389 3.3 4.5-.578.389 3.168-4.5.578z" class="prefix__cls-3" data-name="Path 6396" transform="translate(-7341.453 14589.466)"/>
        <path id="prefix__Path_6397" d="M485.186 384.778l.194 1.584-4.373.512-.259-2.178c-.26-2.112.851-3.3 3.266-3.551l3.068-.385c2.415-.321 3.785.607 4.044 2.653l.26 1.98c.194 1.452-.133 2.44-.851 2.966a1.482 1.482 0 0 1 1.044.8 4.549 4.549 0 0 1 .456 1.651l.324 2.508c.26 2.112-.851 3.3-3.266 3.551l-3.068.385c-2.415.321-3.785-.608-4.044-2.653l-.259-2.178 4.373-.512.195 1.584c.065.4.261.529.717.464l.522-.064c.392-.065.588-.262.523-.658l-.325-2.508c-.065-.4-.26-.529-.717-.464l-2.024.257-.324-2.838 2.023-.257c.392-.065.588-.262.523-.658l-.259-2.244c-.065-.4-.261-.529-.717-.465l-.522.064c-.393.06-.589.258-.524.654z" class="prefix__cls-3" data-name="Path 6397" transform="translate(-7365.646 14591.981)"/>
        <path id="prefix__Path_6398" d="M511.925 398.688l-.324-2.9 7.572-.9.324 2.9z" class="prefix__cls-3" data-name="Path 6398" transform="translate(-7384.23 14583.445)"/>
        <path id="prefix__Path_6399" d="M537.28 374.741l1.946 16.17-4.373.512-1.622-13-2.219.256-.389-3.168z" class="prefix__cls-3" data-name="Path 6399" transform="translate(-7395.676 14595.565)"/>
        <path id="prefix__Path_6400" d="M563.648 374.564l1.233 9.9c.259 2.112-.851 3.3-3.266 3.551l-3.329.384c-2.415.321-3.785-.608-4.044-2.653l-1.233-9.9c-.26-2.112.851-3.3 3.266-3.551l3.329-.384c2.415-.322 3.785.607 4.044 2.653zm-3.206 9.885l-1.1-8.779c-.065-.4-.261-.529-.718-.464l-.653.063a.6.6 0 0 0-.588.658l1.1 8.779c.065.4.26.529.717.465l.653-.064c.459-.065.59-.262.59-.658z" class="prefix__cls-3" data-name="Path 6400" transform="translate(-7409.122 14597.305)"/>
        <path id="prefix__Path_6401" d="M587 364.481l.194 1.848-1.828.192.908 7.591-2.546.321-.843-7.59-1.762.192-.195-1.848z" class="prefix__cls-3" data-name="Path 6401" transform="translate(-7425.942 14601.738)"/>
        <path id="prefix__Path_6402" d="M602.115 362.55l2.481-.321 1.168 9.439-2.48.321-.454-3.763-1.828.191.454 3.762-2.481.321-1.167-9.439 2.481-.321.454 3.894 1.828-.191z" class="prefix__cls-3" data-name="Path 6402" transform="translate(-7436.097 14603.093)"/>
    </g>
</svg>
