<svg xmlns="http://www.w3.org/2000/svg" width="709" height="594" viewBox="0 0 709 594">
    <defs>
        <clipPath id="prefix__clip-path">
            <path id="prefix__Rectangle_11219" d="M0 0H709V594H0z" data-name="Rectangle 11219" transform="translate(-6424 14796)" style="fill:none"/>
        </clipPath>
        <style>
            .prefix__cls-3{fill:#fff}.prefix__cls-4{fill:#431dca}.prefix__cls-5{fill:#eaef20}.prefix__cls-6{fill:#1cd3c6}.prefix__cls-7{fill:#ff437d}
        </style>
    </defs>
    <g id="prefix__Mask_Group_373" data-name="Mask Group 373" transform="translate(6424 -14796)">
        <g id="prefix__Group_8269" data-name="Group 8269" transform="translate(-6937.929 14780.023)">
            <path id="prefix__Path_7267" d="M935.244 238.349l37.033-4.436 7.337 74.483 74.833-11.478 4.826 37.407L946.32 351.6z" class="prefix__cls-3" data-name="Path 7267" transform="translate(-47.832 -12.965)"/>
            <path id="prefix__Path_7268" d="M1316.526 567.465l-23.988 29.25-57.291-46.283-46.706 60.844-29.621-22.435 70.54-91.806z" class="prefix__cls-4" data-name="Path 7268" transform="translate(-56.461 -23.116)"/>
            <path id="prefix__Path_7269" d="M1144.886 184.21l-23.978 29.25-57.3-46.282-46.708 60.843-29.614-22.435 70.541-91.806z" class="prefix__cls-5" data-name="Path 7269" transform="translate(-49.84 -8.33)"/>
            <path id="prefix__Path_7270" d="M157.6 70.43l-23.98 29.25-57.3-46.28-46.706 60.841L0 91.806 70.541 0z" class="prefix__cls-5" data-name="Path 7270" transform="rotate(-169 346.135 19.874)"/>
            <path id="prefix__Path_7271" d="M1170.88 279.192l23.978-29.25 57.3 46.283 46.706-60.844 29.622 22.435-70.54 91.806z" class="prefix__cls-6" data-name="Path 7271" transform="translate(-56.923 -13.021)"/>
            <path id="prefix__Path_7272" d="M881.274 55.329l33.807-19.141 37.879 60.625 67.274-40.826 20.122 29.973-101.564 61.584z" class="prefix__cls-7" data-name="Path 7272" transform="translate(-45.75 -5.337)"/>
            <path id="prefix__Path_7273" d="M740.548 58.878l35.089 10.868L759.87 142.7l71.661 19.6-6.874 37.1L716.5 169.769z" class="prefix__cls-3" data-name="Path 7273" transform="translate(-39.394 -6.212)"/>
            <path id="prefix__Path_7274" d="M1302.736-9.938L1268.933 9.2l-37.88-60.625-67.271 40.825-20.132-29.969 101.574-61.584z" class="prefix__cls-3" data-name="Path 7274" transform="translate(-55.872)"/>
            <path id="prefix__Path_7275" d="M1034.22 455.824l33.8-19.141 37.88 60.625 67.271-40.827 20.123 29.973-101.565 61.584z" class="prefix__cls-3" data-name="Path 7275" transform="translate(-51.651 -20.787)"/>
            <path id="prefix__Path_7276" d="M839.791 259.535l-20.019-30.265 66.718-40.163-42.81-60.016 33.02-21.171 64.574 90.615z" class="prefix__cls-4" data-name="Path 7276" transform="translate(-43.378 -8.104)"/>
            <path id="prefix__Path_7277" d="M1273.528 97.642l21.68 28.371-63.434 42.677 46.071 56.089-31.3 22.379-69.511-84.691z" class="prefix__cls-4" data-name="Path 7277" transform="translate(-57.16 -7.708)"/>
            <path id="prefix__Path_7278" d="M1122.418 370.828l-35.342-9.794 13.691-73.456-72.107-17.4 5.817-37.324 108.833 26.318z" class="prefix__cls-4" data-name="Path 7278" transform="translate(-51.436 -12.924)"/>
            <path id="prefix__Path_7279" d="M910.335-41.474l4.021 37.325L840.916 5.9l10.6 75.331-36.895 6.207-15.952-113.712z" class="prefix__cls-6" data-name="Path 7279" transform="translate(-42.563 -2.341)"/>
            <path id="prefix__Path_7280" d="M1431.669 94.492l4.019 37.324-73.443 10.05 10.6 75.33-36.89 6.207L1320 109.692z" class="prefix__cls-6" data-name="Path 7280" transform="translate(-62.675 -7.586)"/>
            <path id="prefix__Path_7281" d="M1274.569 75.17l-4.019-37.325 73.443-10.045-10.6-75.331 36.89-6.207 15.96 113.712z" class="prefix__cls-7" data-name="Path 7281" transform="translate(-60.768 -1.868)"/>
            <path id="prefix__Path_7282" d="M1064.119 370.011l4.028 37.325-73.447 10.049 10.605 75.331-36.9 6.207-15.948-113.712z" class="prefix__cls-6" data-name="Path 7282" transform="translate(-48.497 -18.215)"/>
            <path id="prefix__Path_7283" d="M1119.007-24.163l-17.44 33.086-67.4-31.62-33.208 68.108-34.541-14.894L1016.5-72.268z" class="prefix__cls-3" data-name="Path 7283" transform="translate(-49.035 -1.153)"/>
            <path id="prefix__Path_7284" d="M921.424 381.57l-34.881 11.651-23.06-72.085-70.007 25.925-12.743-35.986 105.624-39.154z" class="prefix__cls-7" data-name="Path 7284" transform="translate(-41.871 -14.431)"/>
            <path id="prefix__Path_7285" d="M1218.21 469.8l17.431-33.086 67.4 31.62 33.217-68.108 34.544 14.893-50.085 102.781z" class="prefix__cls-5" data-name="Path 7285" transform="translate(-58.749 -19.381)"/>
            <path id="prefix__Path_7286" d="M1065.27 69.3l17.43-33.086 67.4 31.62 33.2-68.107 34.554 14.893-50.08 102.785z" class="prefix__cls-6" data-name="Path 7286" transform="translate(-52.849 -3.93)"/>
            <path id="prefix__Path_7287" d="M1271.947 376.332l-17.44 33.086-67.386-31.62-33.221 68.107-34.544-14.893 50.08-102.785z" class="prefix__cls-7" data-name="Path 7287" transform="translate(-54.935 -16.603)"/>
        </g>
    </g>
</svg>
