<svg xmlns="http://www.w3.org/2000/svg" width="62.166" height="71.047" viewBox="0 0 62.166 71.047">
    <defs>
        <style>
            .cls-1{fill:#fff}
        </style>
    </defs>
    <path id="discord-brands" d="M41.243 33.747a3.636 3.636 0 1 1-3.624-3.947 3.785 3.785 0 0 1 3.624 3.947zM24.653 29.8a3.957 3.957 0 0 0 0 7.886 3.785 3.785 0 0 0 3.623-3.943 3.762 3.762 0 0 0-3.623-3.943zM62.166 7.318v63.729c-8.949-7.909-6.087-5.291-16.483-14.955l1.883 6.572H7.282A7.3 7.3 0 0 1 0 55.346V7.318A7.3 7.3 0 0 1 7.282 0h47.6a7.3 7.3 0 0 1 7.284 7.318zM52.042 40.994a47.572 47.572 0 0 0-5.115-20.71 17.567 17.567 0 0 0-9.982-3.73l-.5.568c6.039 1.847 8.845 4.511 8.845 4.511A30.184 30.184 0 0 0 18.756 20.6c-1.314.6-2.1 1.03-2.1 1.03s2.953-2.803 9.344-4.65l-.355-.426a17.566 17.566 0 0 0-9.982 3.73 47.572 47.572 0 0 0-5.115 20.71s2.984 5.151 10.835 5.4c0 0 1.314-1.6 2.38-2.948a11.048 11.048 0 0 1-6.217-4.192c.523.366 1.384.84 1.456.888a25.9 25.9 0 0 0 22.167 1.243 20.328 20.328 0 0 0 4.085-2.1 11.209 11.209 0 0 1-6.43 4.227 151.575 151.575 0 0 0 2.345 2.877c7.851-.249 10.87-5.4 10.87-5.4z" class="cls-1"/>
</svg>
