<svg xmlns="http://www.w3.org/2000/svg" width="24" height="24" viewBox="0 0 24 24">
    <defs>
        <style>
            .cls-1{fill:none}.cls-2{fill:#1cd3c6}
        </style>
    </defs>
    <g id="Group_4900" data-name="Group 4900" transform="translate(-316 -3547)">
        <path id="Rectangle_1942" d="M0 0h24v24H0z" class="cls-1" data-name="Rectangle 1942" transform="translate(316 3547)"/>
        <g id="Group_922" data-name="Group 922" transform="translate(318 3549)">
            <path id="Path_515" d="M1415.858 555.434l8.927-9.013 8.97 9.013z" class="cls-2" data-name="Path 515" transform="translate(-1415.185 -536.234)"/>
            <path id="Path_516" d="M1408.5 441.8v18.051l9.107-9.026z" class="cls-2" data-name="Path 516" transform="translate(-1408.499 -441.175)"/>
            <path id="Path_517" d="M1414.686 435h8.949l4.166 4.17h-9z" class="cls-2" data-name="Path 517" transform="translate(-1414.12 -435)"/>
            <path id="Path_518" d="M1526.108 435h8.447v8.49z" class="cls-2" data-name="Path 518" transform="translate(-1515.355 -435)"/>
            <path id="Path_519" d="M1580.04 552.046l-3.87 3.992 3.87 3.979z" class="cls-2" data-name="Path 519" transform="translate(-1560.84 -541.345)"/>
            <path id="Path_520" d="M1524.427 499.789l4.507-4.5-4.539-4.551-4.474 4.526z" class="cls-2" data-name="Path 520" transform="translate(-1509.733 -485.638)"/>
            <path id="Path_521" d="M1468.311 489.046h8.318l-4.159 4.153z" class="cls-2" data-name="Path 521" transform="translate(-1462.842 -484.105)"/>
        </g>
    </g>
</svg>
