<svg xmlns="http://www.w3.org/2000/svg" width="368.224" height="413.699" viewBox="0 0 368.224 413.699">
    <defs>
        <style>
            .prefix__cls-2{fill:#fff}
        </style>
    </defs>
    <g id="prefix__Group_4877" data-name="Group 4877" transform="translate(-20800.01 -2842)" style="opacity:.237;mix-blend-mode:overlay;isolation:isolate">
        <path id="prefix__Path_5898" d="M16.719 302.954L1.543 294.18 170.736 1.145l15.176 8.774z" class="prefix__cls-2" data-name="Path 5898" transform="translate(20816.766 2854.43)"/>
        <path id="prefix__Path_5899" d="M1.252 23.877h338.386v17.548H1.252z" class="prefix__cls-2" data-name="Path 5899" transform="translate(20813.594 3101.223)"/>
        <path id="prefix__Path_5900" d="M171.081 369.547L1.817 271.825l8.774-15.176 169.253 97.7zM318.1 114.832l-169.226-97.71 8.774-15.176 169.264 97.722z" class="prefix__cls-2" data-name="Path 5900" transform="translate(20819.727 2863.126)"/>
        <path id="prefix__Path_5901" d="M10.594 114.742L1.82 99.565 171.215 1.95l8.774 15.176z" class="prefix__cls-2" data-name="Path 5901" transform="translate(20819.77 2863.172)"/>
        <path id="prefix__Path_5902" d="M308.829 303.063L139.636 9.909l15.176-8.774L324.005 294.17zM2.384 96.758h17.5v195.456h-17.5zm294.126 0h17.548v195.456h-17.441z" class="prefix__cls-2" data-name="Path 5902" transform="translate(20825.889 2854.32)"/>
        <path id="prefix__Path_5903" d="M22.853 122.3l-7.659-13.279 147.093-84.985 7.659 13.279z" class="prefix__cls-2" data-name="Path 5903" transform="translate(20964.949 3102.95)"/>
        <path id="prefix__Path_5904" d="M363.16 310.251a17.794 17.794 0 1 1 .012.012m-294.327-170a100.633 100.633 0 1 0 0 .012M5.056 310.251a36.891 36.891 0 1 1 50.39 13.517 36.95 36.95 0 0 1-50.39-13.517M299.4 140.263a36.891 36.891 0 1 1 50.39 13.516 36.95 36.95 0 0 1-50.39-13.516M184.09 413.7a36.862 36.862 0 1 0-.024 0m0-339.987a14.15 14.15 0 1 1 .012.024" class="prefix__cls-2" data-name="Path 5904" transform="translate(20800.01 2842)"/>
    </g>
</svg>
