<svg xmlns="http://www.w3.org/2000/svg" width="93.92" height="32.903" viewBox="0 0 93.92 32.903">
    <defs>
        <style>
            .cls-1{fill:#f81894;stroke:rgba(0,0,0,0)}
        </style>
    </defs>
    <g id="Group_5269" data-name="Group 5269" transform="translate(14441.748 -5486.696)">
        <g id="Group_4037" data-name="Group 4037" transform="translate(-14408.249 5491.841)">
            <path id="Path_2706" d="M995.152 1526.858a.41.41 0 0 1-.333-.143l-.984-.983a.41.41 0 0 1-.143-.333v-6.854a.467.467 0 0 1 .143-.349l.984-.984a.41.41 0 0 1 .333-.143h1.237a.492.492 0 0 1 0 .983h-1.031l-.682.7v6.441l.682.682h1.031a.492.492 0 0 1 0 .983zm4.267-.143a.466.466 0 0 1-.349.143h-1.222a.492.492 0 0 1 0-.983h1.015l.7-.682v-2.744h-1.951a.481.481 0 0 1-.492-.476.494.494 0 0 1 .492-.492h2.443a.494.494 0 0 1 .492.492v3.427a.457.457 0 0 1-.143.333zm1.126-7.678a.492.492 0 0 1-.984 0v-.286l-.7-.7h-1.015a.492.492 0 0 1 0-.983h1.222a.466.466 0 0 1 .349.143l.984.984a.55.55 0 0 1 .143.349z" class="cls-1" data-name="Path 2706" transform="translate(-993.692 -1517.07)"/>
            <path id="Path_2707" d="M1030.124 1523.686h-1.031a.492.492 0 1 1 0-.984h3.22l.7-.7v-3.252l-.7-.7h-4.68a.492.492 0 1 1 0-.983h4.886a.467.467 0 0 1 .349.143l.983.984a.551.551 0 0 1 .143.349v3.665a.552.552 0 0 1-.143.349l-.983.984a.552.552 0 0 1-.349.143h-1.019l2.348 2.332a.5.5 0 0 1 0 .7.5.5 0 0 1-.7 0zm-2.983-4.648a.492.492 0 1 1 .984 0v7.329a.492.492 0 1 1-.984 0z" class="cls-1" data-name="Path 2707" transform="translate(-1018.296 -1517.07)"/>
            <path id="Path_2708" d="M1066.461 1523.686h-5.378a.552.552 0 0 1-.349-.143.467.467 0 0 1-.143-.349v-4.648a.467.467 0 0 1 .143-.349l.984-.984a.41.41 0 0 1 .333-.143h3.919a.466.466 0 0 1 .349.143l.984.984a.551.551 0 0 1 .143.349v3.173a.492.492 0 0 1-.984 0v-2.967l-.7-.7h-3.506l-.682.7v3.95h5.378a.494.494 0 0 1 .492.492v3.173a.492.492 0 1 1-.984 0zm-5.87.968a.492.492 0 0 1 .984 0v1.714a.492.492 0 1 1-.984 0z" class="cls-1" data-name="Path 2708" transform="translate(-1042.902 -1517.07)"/>
            <path id="Path_2709" d="M1099.768 1523.543a.551.551 0 0 1-.349.143h-3.427a.492.492 0 1 1 0-.984h3.22l.7-.7v-3.252l-.7-.7h-4.68a.492.492 0 0 1 0-.983h4.886a.467.467 0 0 1 .349.143l.983.984a.551.551 0 0 1 .143.349v3.665a.552.552 0 0 1-.143.349zm-5.727-4.505a.492.492 0 1 1 .983 0v7.329a.492.492 0 1 1-.983 0z" class="cls-1" data-name="Path 2709" transform="translate(-1067.507 -1517.07)"/>
            <path id="Path_2710" d="M1133.36 1522.448h-5.378a.481.481 0 0 1-.492-.476v-4.41a.492.492 0 1 1 .984 0v3.918h5.378a.523.523 0 0 1 .3.1.5.5 0 0 1 .19.4v4.394a.492.492 0 1 1-.984 0zm-5.87.984a.492.492 0 1 1 .984 0v2.935a.492.492 0 1 1-.984 0zm5.87-5.87a.492.492 0 1 1 .984 0v2.935a.492.492 0 1 1-.984 0z" class="cls-1" data-name="Path 2710" transform="translate(-1092.111 -1517.07)"/>
            <path id="Path_2711" d="M1166.809 1518.752l-.7-.7h-3.509l-.682.7v.286a.492.492 0 0 1-.984 0v-.492a.467.467 0 0 1 .143-.349l.984-.984a.41.41 0 0 1 .333-.143h3.919a.466.466 0 0 1 .349.143l.984.984a.552.552 0 0 1 .143.349v5.87a.492.492 0 0 1-.984 0zm-4.886 2.935v3.506l.682.682h2.745a.492.492 0 0 1 0 .983h-2.95a.41.41 0 0 1-.333-.143l-.984-.983a.41.41 0 0 1-.143-.333v-4.9a.462.462 0 0 1 .3-.444.477.477 0 0 1 .539.095l5.87 5.87a.5.5 0 0 1 0 .7.5.5 0 0 1-.7 0z" class="cls-1" data-name="Path 2711" transform="translate(-1116.716 -1517.07)"/>
            <path id="Path_2712" d="M1200.116 1526.716a.466.466 0 0 1-.349.143h-3.919a.409.409 0 0 1-.333-.143l-.984-.983a.41.41 0 0 1-.143-.333v-7.837a.492.492 0 1 1 .984 0v7.631l.682.682h3.506l.7-.682v-.286a.492.492 0 0 1 .984 0v.492a.457.457 0 0 1-.143.333z" class="cls-1" data-name="Path 2712" transform="translate(-1141.321 -1517.07)"/>
            <path id="Path_2713" d="M999.562 1570.482h-5.378a.553.553 0 0 1-.349-.143.467.467 0 0 1-.143-.349v-4.648a.466.466 0 0 1 .143-.349l.984-.984a.41.41 0 0 1 .333-.143h3.919a.466.466 0 0 1 .349.143l.984.984a.551.551 0 0 1 .143.349v3.173a.492.492 0 1 1-.984 0v-2.966l-.7-.7h-3.506l-.682.7v3.95h5.378a.494.494 0 0 1 .492.492v3.173a.492.492 0 0 1-.984 0zm-5.87.968a.492.492 0 1 1 .984 0v1.713a.492.492 0 0 1-.984 0z" class="cls-1" data-name="Path 2713" transform="translate(-993.692 -1551.492)"/>
            <path id="Path_2714" d="M1032.868 1573.512a.468.468 0 0 1-.349.143h-1.219a.492.492 0 0 1 0-.983h1.015l.7-.682v-1.682l-5.568-2.316a.442.442 0 0 1-.3-.444v-2.205a.466.466 0 0 1 .143-.349l.983-.984a.41.41 0 0 1 .333-.143h1.237a.492.492 0 0 1 0 .984h-1.031l-.682.7v1.666l5.569 2.316a.508.508 0 0 1 .3.46v2.205a.457.457 0 0 1-.143.333zm-4.268.143a.41.41 0 0 1-.333-.143l-.983-.983a.409.409 0 0 1-.143-.333v-.492a.492.492 0 1 1 .984 0v.286l.682.682h1.031a.492.492 0 0 1 0 .983zm5.394-7.821a.492.492 0 0 1-.983 0v-.286l-.7-.7h-1.011a.492.492 0 0 1 0-.984h1.222a.467.467 0 0 1 .349.143l.983.984a.552.552 0 0 1 .143.349z" class="cls-1" data-name="Path 2714" transform="translate(-1018.296 -1551.492)"/>
            <path id="Path_2715" d="M1061.083 1573.654a.492.492 0 0 1 0-.983h.73v-7.821h-.73a.492.492 0 0 1 0-.984h2.443a.492.492 0 0 1 0 .984h-.729v7.821h.729a.492.492 0 1 1 0 .983z" class="cls-1" data-name="Path 2715" transform="translate(-1042.902 -1551.492)"/>
            <path id="Path_2716" d="M1086.95 1570.482h-5.378a.553.553 0 0 1-.349-.143.468.468 0 0 1-.143-.349v-4.648a.467.467 0 0 1 .143-.349l.984-.984a.41.41 0 0 1 .333-.143h3.918a.466.466 0 0 1 .349.143l.984.984a.552.552 0 0 1 .143.349v3.173a.492.492 0 1 1-.984 0v-2.966l-.7-.7h-3.506l-.682.7v3.95h5.378a.494.494 0 0 1 .492.492v3.173a.492.492 0 0 1-.984 0zm-5.87.968a.492.492 0 1 1 .984 0v1.713a.492.492 0 0 1-.984 0z" class="cls-1" data-name="Path 2716" transform="translate(-1057.973 -1551.492)"/>
        </g>
        <rect id="Rectangle_4300" width=".965" height="6.276" class="cls-1" data-name="Rectangle 4300" rx=".483" transform="translate(-14416.064 5500.185)"/>
        <g id="Group_4036" data-name="Group 4036" transform="translate(-14441.237 5487.196)">
            <rect id="Rectangle_4299" width=".976" height="6.346" class="cls-1" data-name="Rectangle 4299" rx=".488" transform="translate(2.67 12.778)"/>
            <path id="Path_2717" d="M878.136 1524.23h-2.669a.489.489 0 0 1-.424-.245l-1.335-2.312a.49.49 0 0 1 0-.489l1.335-2.312a.489.489 0 0 1 .424-.245h2.669a.489.489 0 0 1 .424.245l1.334 2.312a.49.49 0 0 1 0 .489l-1.334 2.312a.489.489 0 0 1-.424.245zm-2.387-.978h2.1l1.052-1.822-1.052-1.822h-2.1l-1.052 1.822z" class="cls-1" data-name="Path 2717" transform="translate(-873.644 -1512.054)"/>
            <path id="Path_2718" d="M964.3 1524.23h-2.669a.489.489 0 0 1-.424-.245l-1.335-2.312a.49.49 0 0 1 0-.489l1.335-2.312a.489.489 0 0 1 .424-.245h2.669a.489.489 0 0 1 .424.245l1.334 2.312a.49.49 0 0 1 0 .489l-1.334 2.312a.489.489 0 0 1-.424.245zm-2.387-.978h2.1l1.052-1.822-1.052-1.822h-2.1l-1.052 1.822z" class="cls-1" data-name="Path 2718" transform="translate(-937.021 -1512.054)"/>
            <path id="Path_2719" d="M878.136 1573.965h-2.669a.489.489 0 0 1-.424-.245l-1.335-2.312a.49.49 0 0 1 0-.489l1.335-2.312a.49.49 0 0 1 .424-.245h2.669a.489.489 0 0 1 .424.245l1.334 2.312a.49.49 0 0 1 0 .489l-1.334 2.312a.489.489 0 0 1-.424.245zm-2.387-.978h2.1l1.052-1.823-1.052-1.822h-2.1l-1.052 1.822z" class="cls-1" data-name="Path 2719" transform="translate(-873.644 -1548.637)"/>
            <path id="Path_2720" d="M964.3 1573.965h-2.669a.489.489 0 0 1-.424-.245l-1.335-2.312a.49.49 0 0 1 0-.489l1.335-2.312a.49.49 0 0 1 .424-.245h2.669a.489.489 0 0 1 .424.245l1.334 2.312a.49.49 0 0 1 0 .489l-1.334 2.312a.489.489 0 0 1-.424.245zm-2.387-.978h2.1l1.052-1.823-1.052-1.822h-2.1l-1.052 1.822z" class="cls-1" data-name="Path 2720" transform="translate(-937.021 -1548.637)"/>
            <rect id="Rectangle_4301" width=".976" height="6.346" class="cls-1" data-name="Rectangle 4301" rx=".488" transform="rotate(-60 12.89 -12.477)"/>
            <rect id="Rectangle_4302" width=".976" height="6.346" class="cls-1" data-name="Rectangle 4302" rx=".488" transform="rotate(60 2.146 11.875)"/>
            <path id="Path_2721" d="M921.208 1499.364h-2.669a.49.49 0 0 1-.424-.245l-1.334-2.311a.49.49 0 0 1 0-.489l1.334-2.312a.49.49 0 0 1 .424-.245h2.669a.489.489 0 0 1 .424.245l1.335 2.312a.49.49 0 0 1 0 .489l-1.335 2.311a.489.489 0 0 1-.424.245zm-2.387-.978h2.1l1.052-1.822-1.052-1.822h-2.1l-1.052 1.822z" class="cls-1" data-name="Path 2721" transform="translate(-905.326 -1493.762)"/>
            <rect id="Rectangle_4303" width=".976" height="6.346" class="cls-1" data-name="Rectangle 4303" rx=".488" transform="rotate(60 -9.243 31.6)"/>
            <rect id="Rectangle_4304" width=".976" height="6.346" class="cls-1" data-name="Rectangle 4304" rx=".488" transform="rotate(-60 24.28 7.25)"/>
            <path id="Path_2722" d="M921.208 1598.832h-2.669a.49.49 0 0 1-.424-.245l-1.334-2.312a.49.49 0 0 1 0-.489l1.334-2.312a.49.49 0 0 1 .424-.245h2.669a.489.489 0 0 1 .424.245l1.335 2.312a.49.49 0 0 1 0 .489l-1.335 2.312a.489.489 0 0 1-.424.245zm-2.387-.978h2.1l1.052-1.822-1.052-1.822h-2.1l-1.052 1.822z" class="cls-1" data-name="Path 2722" transform="translate(-905.326 -1566.929)"/>
            <path id="Path_2723" d="M897.912 1548.183a.489.489 0 0 1-.424-.245l-2.692-4.662-2.691 4.662a.489.489 0 0 1-.847-.489l3.115-5.4a.489.489 0 0 1 .847 0l3.116 5.4a.489.489 0 0 1-.423.734z" class="cls-1" data-name="Path 2723" transform="translate(-886.552 -1529.105)"/>
            <path id="Path_2724" d="M939.275 1548.183a.489.489 0 0 1-.423-.734l3.115-5.4a.49.49 0 0 1 .424-.245.489.489 0 0 1 .424.245l3.115 5.4a.489.489 0 0 1-.848.489l-2.691-4.662-2.692 4.662a.49.49 0 0 1-.424.245z" class="cls-1" data-name="Path 2724" transform="translate(-921.561 -1529.105)"/>
            <path id="Path_2725" d="M915.478 1538.924a.367.367 0 0 1-.244-.1.982.982 0 0 1-.179-1.017l3.115-8.213a.5.5 0 0 1 .424-.373.5.5 0 0 1 .424.373l3.115 8.213a.983.983 0 0 1-.179 1.017c-.234.206-.533.084-.668-.273l-2.692-7.1-2.692 7.1a.5.5 0 0 1-.424.373z" class="cls-1" data-name="Path 2725" transform="translate(-904.057 -1519.845)"/>
        </g>
    </g>
</svg>
