<svg xmlns="http://www.w3.org/2000/svg" width="368.222" height="413.699" viewBox="0 0 368.222 413.699">
  <g id="A" transform="translate(-200.185 -274.898)" opacity="0.238">
    <g id="Group_4879" data-name="Group 4879" transform="translate(200.184 274.898)">
      <path id="Path_5911" data-name="Path 5911" d="M241.766,368.3h0Z" transform="translate(-57.677 45.396)" fill="#0064d0"/>
      <path id="Path_5912" data-name="Path 5912" d="M549.824,534.757a36.873,36.873,0,0,0-9.709-3.866V432.582A36.9,36.9,0,1,0,504.745,371.4l-85.131-49.15a36.893,36.893,0,1,0-70.666.084l-85.114,49.048a36.882,36.882,0,1,0-35.388,61.188v98.335a36.891,36.891,0,1,0,35.4,61.263l85.083,49.119a36.864,36.864,0,1,0,70.294-1.187l84.613-48.888a36.85,36.85,0,0,0,59.509-6.063l.013.009a36.807,36.807,0,0,0-13.531-50.4ZM273.006,558a36.014,36.014,0,0,0-10.36-17.938L374.033,347.141a36.693,36.693,0,0,0,10.218,1.47l.009.022a36.858,36.858,0,0,0,10.3-1.484L505.9,540.063A36.421,36.421,0,0,0,495.563,558ZM496.09,386.657a36.743,36.743,0,0,0,26.5,45.819l.053,98.432c-.5.124-1.005.252-1.5.4L409.754,338.38c.191-.182.4-.345.594-.536.146-.146.27-.306.412-.456ZM358.842,338.393l-111.4,192.935q-.751-.213-1.5-.4V432.494a36.818,36.818,0,0,0,23.084-17.331v.013a36.846,36.846,0,0,0,3.459-28.546l85.371-49.194C358.177,337.764,358.51,338.079,358.842,338.393Zm52.6,288.5a36.743,36.743,0,0,0-53.676-.753l-85.189-49.172c.137-.474.266-.943.381-1.422H495.6c.195.788.43,1.559.673,2.33Z" transform="translate(-200.184 -274.898)" fill="#0064d0"/>
    </g>
  </g>
</svg>
