<svg xmlns="http://www.w3.org/2000/svg" width="220" height="267" viewBox="0 0 220 267">
    <defs>
        <style>
            .cls-1,.cls-4{fill:#fff}.cls-1{stroke:#707070}.cls-2{clip-path:url(#clip-path)}.cls-3{opacity:.158}
        </style>
        <clipPath id="clip-path">
            <path id="Rectangle_1523" d="M0 0h220v267H0z" class="cls-1" data-name="Rectangle 1523" transform="translate(1220 516)"/>
        </clipPath>
    </defs>
    <g id="Mask_Group_33" class="cls-2" data-name="Mask Group 33" transform="translate(-1220 -516)">
        <g id="Group_713" class="cls-3" data-name="Group 713" transform="translate(1219.541 515.871)">
            <path id="Path_204" d="M295.974 116.308c9.953-23.978 9.953-72.839-3.167-110.389-3.619-6.786-13.572-4.524-14.025 2.714v2.714c-2.262 35.741-15.382 55.195-34.836 64.7-3.167 1.357-8.144 1.357-11.31-.9a148.93 148.93 0 0 0-159.251 0 11.144 11.144 0 0 1-9.953.9C43.525 68.8 29.952 47.089 27.69 10.9V8.181C27.238.942 16.832-1.32 13.665 5.466.545 43.469 1 92.33 10.5 116.308c4.977 11.763 4.977 25.335.9 37.551a139.939 139.939 0 0 0-7.691 49.766C5.522 282.345 72.479 349.3 151.2 350.66a149.479 149.479 0 0 0 143.416-196.8 53.65 53.65 0 0 1 1.358-37.552zM151.2 314.919c-60.624-1.357-110.39-50.671-111.295-111.294-1.357-64.7 51.123-117.176 115.366-115.818 60.624.9 110.39 50.671 111.295 111.294 1.358 64.243-51.123 116.723-115.366 115.818z" class="cls-4" data-name="Path 204" transform="translate(-3.568 -1.402)"/>
            <path id="Path_205" d="M91.392 80.171L64.7 39c-4.072-6.786-13.12-8.6-19.906-4.524a14.847 14.847 0 0 0-6.786 12.215 15.252 15.252 0 0 0 2.262 7.691l18.1 28.05a6.14 6.14 0 0 1-.452 6.786l-28.05 30.764a14.352 14.352 0 0 0 .9 20.359 15.81 15.81 0 0 0 9.953 3.619 14.728 14.728 0 0 0 10.406-4.524l20.811-24.431c1.81-1.81 4.524-1.81 5.881.452l14.93 21.264a8.878 8.878 0 0 0 4.072 4.072 14.316 14.316 0 0 0 16.287.452 14.847 14.847 0 0 0 6.786-12.215 15.252 15.252 0 0 0-2.262-7.691z" class="cls-4" data-name="Path 205" transform="translate(75.694 107.574)"/>
        </g>
    </g>
</svg>
