<svg xmlns="http://www.w3.org/2000/svg" id="Group_4880" width="24" height="24" data-name="Group 4880" viewBox="0 0 24 24">
    <defs>
        <style>
            .cls-1{fill:none}.cls-2{fill:#fff}
        </style>
    </defs>
    <path id="Path_541" d="M0 0h24v24H0z" class="cls-1" data-name="Path 541"/>
    <g id="Group_932" data-name="Group 932" transform="translate(2.923 1.413)">
        <path id="Path_204" d="M21.521 8.456a11.171 11.171 0 0 0-.194-6.777.456.456 0 0 0-.861.167v.167c-.139 2.194-.944 3.389-2.139 3.972a.772.772 0 0 1-.694-.056 9.144 9.144 0 0 0-9.777 0 .684.684 0 0 1-.611.056c-1.222-.444-2.055-1.778-2.194-4v-.167a.457.457 0 0 0-.861-.167 11.479 11.479 0 0 0-.194 6.805 3.292 3.292 0 0 1 .056 2.305 8.592 8.592 0 0 0-.472 3.055 9.392 9.392 0 0 0 9.055 9.027A9.177 9.177 0 0 0 21.44 10.76a3.294 3.294 0 0 1 .081-2.304zM12.632 20.65a6.973 6.973 0 1 1 7.083-7.111 6.994 6.994 0 0 1-7.083 7.111z" class="cls-2" data-name="Path 204" transform="translate(-3.568 -1.402)"/>
        <path id="Path_205" d="M30.07 35.262l-1.639-2.528a.891.891 0 0 0-1.222-.278.912.912 0 0 0-.417.75.936.936 0 0 0 .139.472l1.112 1.722a.377.377 0 0 1-.028.417l-1.722 1.889a.881.881 0 0 0 .056 1.25.971.971 0 0 0 .611.222.9.9 0 0 0 .64-.278l1.278-1.5a.221.221 0 0 1 .361.028l.917 1.305a.545.545 0 0 0 .25.25.879.879 0 0 0 1 .028.912.912 0 0 0 .417-.75.936.936 0 0 0-.139-.472z" class="cls-2" data-name="Path 205" transform="translate(-19.812 -23.735)"/>
    </g>
</svg>
