<svg xmlns="http://www.w3.org/2000/svg" width="24" height="24" viewBox="0 0 24 24">
    <defs>
        <style>
            .cls-1{fill:none}.cls-2{fill:#fff}
        </style>
    </defs>
    <g id="Group_4889" data-name="Group 4889" transform="translate(-580 -3432)">
        <g id="Group_1064" data-name="Group 1064" transform="translate(580 3432)">
            <path id="Path_540" d="M0 0h24v24H0z" class="cls-1" data-name="Path 540"/>
        </g>
        <g id="Group_1059" data-name="Group 1059" transform="translate(580.286 3432.285)">
            <path id="Subtraction_55" d="M-6087.023 3404.285h-9.955a4.313 4.313 0 0 1-4.309-4.307v-9.956a4.313 4.313 0 0 1 4.309-4.307h9.955a4.313 4.313 0 0 1 4.309 4.307v9.956a4.313 4.313 0 0 1-4.309 4.307zm-3.191-7.587c.064 1.3 1.223 2.2 2.817 2.2 1.631 0 2.727-.885 2.727-2.2 0-1.019-.655-1.615-2.189-1.994l-.873-.222c-1.283-.321-1.831-.783-1.831-1.545a1.9 1.9 0 0 1 2.114-1.692 1.987 1.987 0 0 1 2.205 1.622h.429a1.917 1.917 0 0 0-.777-1.439 3.017 3.017 0 0 0-1.846-.578 2.315 2.315 0 0 0-2.566 2.1c0 .967.649 1.564 2.105 1.936l.927.227c1.324.334 1.863.8 1.863 1.622 0 1.027-.948 1.772-2.254 1.772-1.36 0-2.356-.742-2.424-1.805zm-3.778-5.848a3.246 3.246 0 0 0-2.54 1.088 4.4 4.4 0 0 0-.945 2.933 4.418 4.418 0 0 0 .942 2.942 3.245 3.245 0 0 0 2.543 1.087 3.246 3.246 0 0 0 2.543-1.087 4.418 4.418 0 0 0 .942-2.942 4.4 4.4 0 0 0-.944-2.933 3.248 3.248 0 0 0-2.541-1.087zm-4.679 2.1v5.837h.437v-5.837zm.213-2.1a.333.333 0 0 0-.337.337.334.334 0 0 0 .337.329.331.331 0 0 0 .34-.329.335.335 0 0 0-.34-.336zm4.466 7.648c-1.85 0-3.045-1.424-3.045-3.627a4.043 4.043 0 0 1 .825-2.641 2.8 2.8 0 0 1 2.22-.979 2.8 2.8 0 0 1 2.222.978 4.041 4.041 0 0 1 .826 2.642 4.054 4.054 0 0 1-.826 2.645 2.8 2.8 0 0 1-2.222.984z" class="cls-2" data-name="Subtraction 55" transform="translate(6104 -3383)"/>
        </g>
    </g>
</svg>
