<svg xmlns="http://www.w3.org/2000/svg" id="Group_4882" width="24" height="24" data-name="Group 4882" viewBox="0 0 24 24">
    <defs>
        <style>
            .cls-1{fill:none}.cls-2{fill:#fff}.cls-3{fill:#001e3e}
        </style>
    </defs>
    <path id="Path_541" d="M0 0h24v24H0z" class="cls-1" data-name="Path 541"/>
    <g id="postgresql" transform="translate(1.6 1.2)">
        <path id="Path_566" d="M20.972 13.167a1.052 1.052 0 0 0-.873-.7 2 2 0 0 0-.7.039 6.262 6.262 0 0 1-1.073.141A20.7 20.7 0 0 0 20.52 7.43c.727-2.816.339-4.1-.116-4.679a6.289 6.289 0 0 0-5.07-2.386A8.986 8.986 0 0 0 12.7.734a9.814 9.814 0 0 0-1.543-.141 5.011 5.011 0 0 0-2.685.662 12.242 12.242 0 0 0-1.9-.476 5.872 5.872 0 0 0-4.441.7C.811 2.419.2 4.043.311 6.312A27.746 27.746 0 0 0 1.384 11.3a17.234 17.234 0 0 0 1.156 2.951A3.653 3.653 0 0 0 4.405 16.2a1.834 1.834 0 0 0 1.816-.4 1.588 1.588 0 0 0 .382.329 2.54 2.54 0 0 0 .72.3 3.869 3.869 0 0 0 2.518-.15c0 .131.008.256.011.364 0 .175.01.347.016.507a8.885 8.885 0 0 0 .336 2.52c.012.032.028.082.045.134a3.034 3.034 0 0 0 .756 1.332 2.256 2.256 0 0 0 1.6.593 3.585 3.585 0 0 0 .746-.083A3.505 3.505 0 0 0 15.7 20.29a7.831 7.831 0 0 0 .975-4.3l.02-.169.013-.111.146.013h.038a5.772 5.772 0 0 0 2.414-.418c.482-.224 2.025-1.039 1.662-2.139" class="cls-2" data-name="Path 566" transform="translate(-.297 -.364)"/>
        <path id="Path_567" d="M29.738 23.537c-2.414.5-2.58-.319-2.58-.319 2.549-3.782 3.614-8.582 2.695-9.757-2.508-3.2-6.851-1.689-6.923-1.65h-.023a8.609 8.609 0 0 0-1.611-.168 3.978 3.978 0 0 0-2.55.763S11 9.219 11.361 16.424c.077 1.533 2.2 11.6 4.725 8.557.924-1.112 1.817-2.051 1.817-2.051a2.344 2.344 0 0 0 1.531.391l.043-.037a1.687 1.687 0 0 0 .017.433c-.651.728-.46.856-1.762 1.124-1.318.272-.544.755-.038.881a2.677 2.677 0 0 0 2.988-.971l-.038.153a4.351 4.351 0 0 1 .4 2.35 6.473 6.473 0 0 0 .151 2.268c.2.547.4 1.778 2.114 1.411a2.524 2.524 0 0 0 2.275-2.426c.073-.942.239-.8.249-1.645l.133-.4c.153-1.277.024-1.689.906-1.5l.214.019a4.882 4.882 0 0 0 2-.336c1.073-.5 1.709-1.329.651-1.111" class="cls-2" data-name="Path 567" transform="translate(-10.452 -10.521)"/>
        <path id="Path_568" d="M101.353 79.7a.749.749 0 0 0-.514.073.189.189 0 0 0-.078.125.366.366 0 0 0 .089.24.672.672 0 0 0 .427.266.487.487 0 0 0 .068 0 .553.553 0 0 0 .524-.356c.026-.19-.249-.316-.516-.353m7.206.006c-.021-.149-.285-.191-.536-.156s-.494.148-.473.3a.509.509 0 0 0 .473.314.452.452 0 0 0 .063 0 .61.61 0 0 0 .344-.188.379.379 0 0 0 .129-.262" class="cls-3" data-name="Path 568" transform="translate(-92.605 -73.108)"/>
        <path id="Path_569" d="M26.962 19.758c-.092-.278-.388-.368-.881-.266-1.461.3-1.985.093-2.157-.034a20.1 20.1 0 0 0 2.576-5.774 10.972 10.972 0 0 0 .381-2.483 2.682 2.682 0 0 0-.389-1.677 5.711 5.711 0 0 0-4.617-2.156 7.91 7.91 0 0 0-2.669.421A6.654 6.654 0 0 0 17.7 7.6a4.339 4.339 0 0 0-2.573.709 11.488 11.488 0 0 0-2.091-.548 5.326 5.326 0 0 0-4 .615c-1.146.812-1.676 2.264-1.573 4.315a27.088 27.088 0 0 0 1.048 4.846c.817 2.676 1.7 4.19 2.639 4.5a1.182 1.182 0 0 0 .374.062 1.564 1.564 0 0 0 1.193-.676q.8-.954 1.645-1.861a2.65 2.65 0 0 0 1.183.318v.032q-.107.127-.209.258c-.286.363-.345.438-1.266.628-.262.054-.957.2-.967.685-.011.532.822.756.917.78a3.926 3.926 0 0 0 .953.124 2.774 2.774 0 0 0 1.909-.713 18.07 18.07 0 0 0 .291 4.339 2.179 2.179 0 0 0 2.083 1.607 3.342 3.342 0 0 0 .7-.079 2.643 2.643 0 0 0 2.409-2.452c.135-.783.367-2.652.476-3.655a2.946 2.946 0 0 0 .847.1 5.041 5.041 0 0 0 1.923-.366c.549-.253 1.529-.868 1.351-1.41zm-3.58-6.776a6.082 6.082 0 0 1-.089.845 7.807 7.807 0 0 0-.107.992 7.525 7.525 0 0 0 .079 1.122 4 4 0 0 1-.175 2.279 2.963 2.963 0 0 1-.158-.325c-.044-.108-.141-.281-.274-.52-.519-.931-1.736-3.113-1.113-4 .185-.265.656-.537 1.838-.391zM21.95 7.967a5.051 5.051 0 0 1 4.071 1.925c.744.951-.075 5.276-2.446 9.007l-.072-.091-.03-.038a4.216 4.216 0 0 0 .386-2.9 6.956 6.956 0 0 1-.075-1.032 7.307 7.307 0 0 1 .1-.92 5.812 5.812 0 0 0 .094-1.139.472.472 0 0 0 .01-.161 6.4 6.4 0 0 0-1.459-2.744A6.572 6.572 0 0 0 20.21 8.13a7.821 7.821 0 0 1 1.74-.164zm-9.69 13.07c-.479.576-.81.465-.918.429-.709-.236-1.531-1.734-2.256-4.109a26.842 26.842 0 0 1-1.023-4.7c-.092-1.833.353-3.11 1.32-3.8 1.575-1.117 4.164-.448 5.2-.109l-.045.044c-1.707 1.724-1.667 4.67-1.663 4.851 0 .069.006.168.014.3a12.189 12.189 0 0 1-.062 2.462 3.114 3.114 0 0 0 .821 2.606q.1.105.212.2a43.559 43.559 0 0 0-1.605 1.82zm1.825-2.437a2.519 2.519 0 0 1-.66-2.11 12.743 12.743 0 0 0 .067-2.58c0-.072-.008-.136-.01-.185a3.285 3.285 0 0 1 2.23-.652.907.907 0 0 1 .7.783 5.468 5.468 0 0 1-.279 4 7.102 7.102 0 0 0-.195.46l-.044.119a7.8 7.8 0 0 0-.281.846 2.128 2.128 0 0 1-1.528-.677zm.086 3.076a1.323 1.323 0 0 1-.4-.172 1.949 1.949 0 0 1 .425-.127c1.083-.223 1.25-.38 1.615-.844.084-.106.179-.227.31-.374.2-.219.285-.182.448-.115a.633.633 0 0 1 .312.4.446.446 0 0 1-.038.375 2.367 2.367 0 0 1-2.672.86zm5.665 5.272a1.613 1.613 0 0 1-2.1-1.164 23.76 23.76 0 0 1-.228-5.231.3.3 0 0 0-.013-.095 1.254 1.254 0 0 0-.037-.175 1.213 1.213 0 0 0-.658-.783.928.928 0 0 0-.606-.073 7.316 7.316 0 0 1 .261-.78l.045-.12c.05-.135.113-.275.18-.423a6.05 6.05 0 0 0 .32-4.372 1.56 1.56 0 0 0-1.883-1.274 4.346 4.346 0 0 0-1.442.449c-.06.03-.114.059-.165.088a6.292 6.292 0 0 1 1.46-3.782 3.6 3.6 0 0 1 2.725-1.019 5.776 5.776 0 0 1 4.412 2.106 6.7 6.7 0 0 1 1.207 2.071c-1.116-.114-1.876.107-2.261.657-.837 1.2.458 3.52 1.081 4.637.114.2.213.381.244.457a4.146 4.146 0 0 0 .657 1.059c.059.073.116.145.159.207-.338.1-.946.323-.89 1.449-.045.565-.362 3.21-.523 4.144a2.05 2.05 0 0 1-1.945 1.968zm5.528-6.326a4.362 4.362 0 0 1-1.474.307 1.849 1.849 0 0 1-.99-.129c-.034-.7.227-.775.5-.853.043-.012.086-.024.127-.038a1.033 1.033 0 0 0 .084.061 3.659 3.659 0 0 0 2.587.1h.013a3.308 3.308 0 0 1-.847.555z" class="cls-3" data-name="Path 569" transform="translate(-6.872 -6.799)"/>
    </g>
</svg>
