<svg xmlns="http://www.w3.org/2000/svg" id="Group_4898" width="24" height="24" data-name="Group 4898" viewBox="0 0 24 24">
    <defs>
        <style>
            .cls-1{fill:none}.cls-2{fill:#1cd3c6}
        </style>
    </defs>
    <path id="Path_536" d="M0 0h24v24H0z" class="cls-1" data-name="Path 536"/>
    <g id="React-icon" transform="translate(1.6 2.8)">
        <path id="Path_487" d="M196.183 87.122c0-1.357-1.7-2.643-4.3-3.44.6-2.655.334-4.768-.843-5.444a1.831 1.831 0 0 0-.94-.238v.931a.967.967 0 0 1 .476.109c.568.326.814 1.566.622 3.16a12.81 12.81 0 0 1-.213 1.227 20.232 20.232 0 0 0-2.651-.455 20.366 20.366 0 0 0-1.737-2.088 6.158 6.158 0 0 1 3.507-1.958V78c-1.148 0-2.651.818-4.171 2.238-1.52-1.411-3.023-2.221-4.171-2.221v.931a6.184 6.184 0 0 1 3.507 1.946 19.722 19.722 0 0 0-1.724 2.083 19.5 19.5 0 0 0-2.655.459c-.1-.418-.167-.822-.217-1.211-.2-1.595.046-2.835.61-3.165a.929.929 0 0 1 .48-.109v-.931a1.862 1.862 0 0 0-.944.234c-1.173.676-1.436 2.785-.831 5.432-2.6.8-4.288 2.083-4.288 3.436s1.7 2.643 4.3 3.44c-.6 2.655-.334 4.768.843 5.444a1.835 1.835 0 0 0 .939.234c1.148 0 2.651-.818 4.171-2.238 1.52 1.411 3.023 2.221 4.171 2.221a1.861 1.861 0 0 0 .944-.234c1.173-.676 1.436-2.785.831-5.432 2.593-.796 4.284-2.082 4.284-3.435zm-5.436-2.785a18.606 18.606 0 0 1-.564 1.649c-.171-.334-.351-.668-.547-1s-.4-.66-.6-.977c.592.091 1.164.191 1.711.329zm-1.912 4.446c-.326.564-.66 1.1-1.006 1.595a21.84 21.84 0 0 1-3.766.005q-.52-.745-1.01-1.587c-.317-.547-.605-1.1-.868-1.662a22.065 22.065 0 0 1 1.87-3.261 21.822 21.822 0 0 1 3.766-.005q.52.745 1.01 1.587.476.82.868 1.662c-.263.561-.551 1.12-.864 1.667zm1.349-.543c.225.559.418 1.119.576 1.662-.547.134-1.123.246-1.72.334.2-.321.409-.651.6-.989s.372-.672.543-1.006zm-4.234 4.46a17.212 17.212 0 0 1-1.161-1.336c.376.017.76.029 1.148.029s.781-.008 1.161-.029a16.3 16.3 0 0 1-1.148 1.336zm-3.106-2.459c-.593-.088-1.165-.2-1.712-.33.154-.539.347-1.094.564-1.649.171.334.351.668.547 1s.396.658.601.975zm3.085-8.688a17.212 17.212 0 0 1 1.161 1.336c-.376-.017-.76-.029-1.148-.029s-.781.008-1.161.029a16.3 16.3 0 0 1 1.148-1.34zm-3.09 2.459c-.2.321-.409.651-.6.989s-.372.668-.543 1a17.768 17.768 0 0 1-.576-1.662 21.31 21.31 0 0 1 1.719-.331zm-3.778 5.227c-1.478-.63-2.434-1.457-2.434-2.113s.956-1.486 2.434-2.113c.359-.154.751-.292 1.156-.422a20.052 20.052 0 0 0 .939 2.543 19.767 19.767 0 0 0-.927 2.53 14.098 14.098 0 0 1-1.168-.429zm2.246 5.966c-.568-.326-.814-1.566-.622-3.16.046-.392.121-.806.213-1.227a20.231 20.231 0 0 0 2.651.455 20.365 20.365 0 0 0 1.737 2.087 6.158 6.158 0 0 1-3.507 1.958 1 1 0 0 1-.472-.118zm9.9-3.181c.2 1.595-.046 2.835-.61 3.165a.929.929 0 0 1-.48.109 6.184 6.184 0 0 1-3.507-1.946 19.72 19.72 0 0 0 1.724-2.083 19.5 19.5 0 0 0 2.655-.459 11.685 11.685 0 0 1 .221 1.21zm1.607-2.785c-.359.154-.751.292-1.156.422a20.056 20.056 0 0 0-.939-2.543 19.77 19.77 0 0 0 .927-2.53c.413.129.806.271 1.173.426 1.478.63 2.434 1.457 2.434 2.113s-.953 1.482-2.435 2.108z" class="cls-2" data-name="Path 487" transform="translate(-175.7 -78)"/>
        <circle id="Ellipse_262" cx="1.908" cy="1.908" r="1.908" class="cls-2" data-name="Ellipse 262" transform="translate(8.329 7.214)"/>
    </g>
</svg>
