<svg xmlns="http://www.w3.org/2000/svg" width="24" height="24" viewBox="0 0 24 24">
    <defs>
        <style>
            .cls-1{fill:none}.cls-2{fill:#1cd3c6;stroke:rgba(0,0,0,0);stroke-miterlimit:10}
        </style>
    </defs>
    <g id="Group_4903" data-name="Group 4903" transform="translate(-630.831 -3473.288)">
        <path id="Path_574" d="M0 0h24v24H0z" class="cls-1" data-name="Path 574" transform="translate(630.831 3473.288)"/>
        <g id="Group_1046" data-name="Group 1046" transform="translate(633.231 3475.688)">
            <path id="Subtraction_54" d="M-6004.383 3402.616h-19.017V3383.6h19.018v19.016zm-12.359-3.687h1.412l1.06 2.015h2.151l-1.518-2.379a2.457 2.457 0 0 0 1.3-2.348c0-1.625-1.1-2.556-3.032-2.556h-3.273v7.283h1.9v-2.014zm5.619-5.268v7.283h5.85v-1.518h-3.949v-1.371l3.471-.01v-1.506h-3.471v-1.361h3.844v-1.518zm-4.239 3.75h-1.38v-2.233h1.38c.785 0 1.217.391 1.217 1.1a1.061 1.061 0 0 1-1.217 1.133z" class="cls-2" data-name="Subtraction 54" transform="translate(6023.4 -3383.599)"/>
        </g>
    </g>
</svg>
