<svg xmlns="http://www.w3.org/2000/svg" width="24" height="24" viewBox="0 0 24 24">
    <defs>
        <style>
            .cls-1{fill:#fff}.cls-2{fill:none}
        </style>
    </defs>
    <g id="Group_4910" data-name="Group 4910" transform="translate(-6535 3386)">
        <g id="Group_4909" data-name="Group 4909" transform="translate(6536.646 -3384.352)">
            <path id="Subtraction_21" d="M19.447 19.447H0V0h19.447v19.447zM13.1 15.186l-.559.324-.722.417a1.613 1.613 0 0 0-.179.114c-.005.009.01.045.045.105s.078.128.133.21a4.46 4.46 0 0 0 .328.435 2.76 2.76 0 0 0 .392.355 3.447 3.447 0 0 0 .476.3 3.9 3.9 0 0 0 1.111.378 5.361 5.361 0 0 0 .835.054 4.217 4.217 0 0 0 .647-.039 3.755 3.755 0 0 0 .747-.2 2.852 2.852 0 0 0 .617-.331 2.308 2.308 0 0 0 .473-.449 2.128 2.128 0 0 0 .315-.556 2.518 2.518 0 0 0 .141-.6 3.019 3.019 0 0 0 .006-.633 2.871 2.871 0 0 0-.124-.611 2.173 2.173 0 0 0-.249-.53 2.324 2.324 0 0 0-.329-.4 3.205 3.205 0 0 0-.467-.368 6.573 6.573 0 0 0-.659-.375 17.734 17.734 0 0 0-.9-.417c-.2-.086-.351-.156-.477-.218a2.928 2.928 0 0 1-.321-.182 1.1 1.1 0 0 1-.2-.171.887.887 0 0 1-.189-.357.835.835 0 0 1-.018-.193.859.859 0 0 1 .052-.311.681.681 0 0 1 .154-.241.751.751 0 0 1 .28-.175 1.11 1.11 0 0 1 .378-.061h.1a1.328 1.328 0 0 1 .277.046.974.974 0 0 1 .237.1 1.067 1.067 0 0 1 .208.165 1.675 1.675 0 0 1 .192.236c.077.113.147.193.171.193.24-.149.574-.366.87-.565.141-.1.261-.177.345-.237a.723.723 0 0 0 .137-.108 1.271 1.271 0 0 0-.174-.271 4.748 4.748 0 0 0-.292-.352 2.5 2.5 0 0 0-.553-.438 2.54 2.54 0 0 0-.664-.262 2.8 2.8 0 0 0-.412-.059 6.122 6.122 0 0 0-.513-.021 3.255 3.255 0 0 0-.55.037 2.919 2.919 0 0 0-.728.237 2.41 2.41 0 0 0-.587.4 2.224 2.224 0 0 0-.428.542 2.37 2.37 0 0 0-.25.669 3.063 3.063 0 0 0-.033.622 3.054 3.054 0 0 0 .067.619 2.1 2.1 0 0 0 .089.257 2.726 2.726 0 0 0 .126.261 2.327 2.327 0 0 0 .319.455 3.148 3.148 0 0 0 .312.3 3.377 3.377 0 0 0 .376.266 8.941 8.941 0 0 0 1.143.566 9.353 9.353 0 0 1 .94.45 1.8 1.8 0 0 1 .247.168.822.822 0 0 1 .149.159.765.765 0 0 1 .117.226.932.932 0 0 1 .029.268.965.965 0 0 1-.014.174.676.676 0 0 1-.045.15.659.659 0 0 1-.079.134.9.9 0 0 1-.115.125 1.474 1.474 0 0 1-.975.314 2.073 2.073 0 0 1-.471-.054 1.866 1.866 0 0 1-.446-.165 2.615 2.615 0 0 1-.738-.707zm-4.468-6.2h-.924l-3.4.009-.008.793-.006.8h2.531v7.192h1.79v-7.196h2.531V9.8a7.6 7.6 0 0 0-.022-.8c-.006-.009-1.007-.015-2.49-.015z" class="cls-1" data-name="Subtraction 21" transform="translate(.355 .352)"/>
        </g>
        <path id="Path_574" d="M0 0h24v24H0z" class="cls-2" data-name="Path 574" transform="translate(6535 -3386)"/>
    </g>
</svg>
